<svg viewBox="0 0 31 49" xmlns="http://www.w3.org/2000/svg" xmlns:xlink="http://www.w3.org/1999/xlink">
  <defs>
    <path d="M1.428 1.938c-.056-1.24.68-1.7.98-1.852.298-.158 1.43-.198 1.907.787.315.667 2.442 6.89 3.865 10.87.42-.24 1.245-.62 2.133-.62.89 0 1.286.238 1.86 1.366.316-.29.566-.346.566-.346s2.15-.77 3.4.5c.477.485.85 1.09 1.116 1.653.177-.223.33-.358.33-.358 1.254-1.04 2.425 0 3.234.793.81.795 1.618 3.028 2.426 4.768.81 1.74.647 3.17.647 7.34 0 4.173-.34 6.898.582 7.62l2.473 2.36s-1.22 2.766-4.084 4.927c-2.878 2.162-6.896 2.385-6.896 2.385s0-1.59-3.235-4.767c-3.235-3.18-4.044-1.59-7.107-6.666-3.065-5.078-2.7-8.574-2.87-10.084-.162-1.52-1.375-4.856-1.375-4.856S.2 15.84.75 15.55c.558-.276 1.585-.705 3.008.32.865.7 1.32 1.137 1.49 2.003 0 0-3.762-14.366-3.827-15.94z" id="a"/>
    <mask id="b" x="-2" y="-2" width="30.342" height="48.135">
      <path fill="#fff" d="M-1.39-2h30.343v48.135H-1.39z"/>
      <use xlink:href="#a"/>
    </mask>
  </defs>
  <g fill="none" fill-rule="evenodd">
    <g transform="translate(2 2)">
      <use fill="#FFF" xlink:href="#a"/>
      <use stroke="#FFF" mask="url(#b)" stroke-width="4" stroke-linecap="round" stroke-linejoin="round" xlink:href="#a"/>
      <use stroke="#555" stroke-width="1.5" stroke-linecap="round" stroke-linejoin="round" xlink:href="#a"/>
    </g>
    <path d="M10.28 14.164c.768 2.264 1.066 3.33 1.066 3.33s1.415 2.93 1.85 3.28m1.214-5.847c.478.93 1.068 2.455 2.143 4.95m2.612-3.68c.436.907.622 1.693.622 1.693s.954 1.32 1.9 1.836m-14.432.15c.17.86 1.816 5.697 1.816 5.697s.26 1.796-.44 2.956" stroke="#555" stroke-linecap="round" stroke-linejoin="round"/>
  </g>
</svg>
